<svg style="--icon-surface:#1a1a1a;--icon-border:rgba(255,255,255,.11);--icon-media:#222;--icon-strong:#aeaeae;--icon-soft:#616161" xmlns="http://www.w3.org/2000/svg" width="214.6" height="100" viewBox="0 0 762 355.1"><rect width="761" height="354.1" x=".5" y=".5" rx="15" ry="15" style="fill:var(--icon-surface);stroke:var(--icon-border)"/><g transform="translate(34 56) scale(1.75)" style="fill:none;stroke:var(--icon-strong);stroke-width:3;stroke-linecap:round;stroke-linejoin:round"><path d="M20 10c0 5-5.5 10.2-7.4 11.8a1 1 0 0 1-1.2 0C9.5 20.2 4 15 4 10a8 8 0 0 1 16 0"/><circle cx="12" cy="10" r="3"/></g><g transform="translate(34 118) scale(1.75)" style="fill:none;stroke:var(--icon-strong);stroke-width:3;stroke-linecap:round;stroke-linejoin:round"><path d="M22 16.9v3a2 2 0 0 1-2.2 2 19.8 19.8 0 0 1-8.6-3.1 19.5 19.5 0 0 1-6-6A19.8 19.8 0 0 1 2.1 4.2 2 2 0 0 1 4.1 2h3a2 2 0 0 1 2 1.7c.1 1 .4 1.9.7 2.8a2 2 0 0 1-.5 2.1L8.1 9.9a16 16 0 0 0 6 6l1.3-1.3a2 2 0 0 1 2.1-.4c.9.3 1.8.6 2.8.7a2 2 0 0 1 1.7 2z"/></g><g transform="translate(34 180) scale(1.75)" style="fill:none;stroke:var(--icon-strong);stroke-width:3;stroke-linecap:round;stroke-linejoin:round"><rect width="20" height="16" x="2" y="4" rx="2"/><path d="m22 7-9 5.7a2 2 0 0 1-2 0L2 7"/></g><g transform="translate(34 242) scale(1.75)" style="fill:none;stroke:var(--icon-strong);stroke-width:3;stroke-linecap:round;stroke-linejoin:round"><circle cx="12" cy="12" r="10"/><path d="M12 6v6l4 2"/></g><path d="M112 77h410M112 263h320M112 292h300" style="fill:none;stroke-width:15;stroke-linecap:round;stroke:var(--icon-soft)"/><path d="M112 139h230M112 201h360" style="fill:none;stroke-width:15;stroke-linecap:round;stroke:var(--icon-strong)"/></svg>
